<svg width="17653" height="3874" viewBox="0 0 17653 3874" fill="none" xmlns="http://www.w3.org/2000/svg">
<path d="M16153.7 309.844L15670.8 893.999L16091.4 1400.26C16382.2 1052.37 16959.1 339.441 16971.5 333.21C16984 326.979 16431.5 315.037 16153.7 309.844Z" fill="#AD1D34"/>
<path d="M14389.9 239.758H13497.7H13349.8L14748.6 1930.93L13349.8 3666.79H14389.9L15795.4 1930.93L14389.9 239.758Z" fill="#D6CE2B"/>
<path d="M16091.4 2436.17L15639.7 2981.38L16145.9 3549.95H17033.9L16091.4 2436.17Z" fill="#153347"/>
<path d="M16159.4 3482.53L16329.9 3846.04L17201.8 3847.07L17343.2 3482.27L16159.4 3482.53Z" fill="white"/>
<path d="M16007.6 361.109L16020.4 0.0351562L17230.1 0.0511475V402.064L16007.6 361.109Z" fill="white"/>
<path d="M15703.6 2903.37L15472.6 3184.72L16017.3 3845.93H16481.4L15703.6 2903.37Z" fill="white"/>
<path d="M14452.6 0H12820.2L14420.5 1925.02L12820.2 3850.75H14447.6L16050.4 1922.88L14452.6 0ZM13588.4 360.606H14283.5L15584.1 1925.37L14283.5 3490.14H13588.8L14889.4 1925.37L13588.8 360.606H13588.4Z" fill="white"/>
<path d="M15706.2 937.818L15589.4 797.448L15472.6 657.078L16018.9 0H16486.2L15706.2 937.818Z" fill="white"/>
<path d="M16055.2 1356.22L16286.2 1634.08L17641.9 0H17180.3L16055.2 1356.22Z" fill="white"/>
<path d="M17184.1 3847.03H17652.2L16968.6 3025.25L16285.1 2203.47L16051.3 2485.11L17184.1 3847.03Z" fill="white"/>
<path d="M4497.31 3870.53H3728.78V27.3906H4497.31V3870.53Z" fill="white"/>
<path d="M31.0996 3869.52V3106.23H1900.39V3869.52H31.0996Z" fill="white"/>
<path d="M0 800.539V6.09375L1869.29 13.8828V800.539H0Z" fill="white"/>
<path d="M1643.95 800.539L1869.28 13.8711L3349.59 1961.35L2381.95 1963.06L1643.95 800.539Z" fill="white"/>
<path d="M1900.33 3869.7L1643.42 3105.99L2386.01 1955.6L3349.06 1961.33L1900.33 3869.7Z" fill="white"/>
<path d="M7925.95 3618.07C7780.44 3699.7 7625.21 3762.69 7460.17 3807.11C7295.13 3851.45 7122.14 3873.58 6941.21 3873.58C6628.83 3873.58 6352.86 3820.36 6113.24 3713.89C5873.7 3607.45 5672.3 3464.62 5509 3285.39C5345.78 3106.2 5222.45 2903.91 5139.03 2678.56C5055.7 2453.21 5012.25 2219.87 5008.68 1978.51C5005.12 1737.19 5041.47 1502.96 5117.79 1275.86C5194.07 1048.68 5312.06 841.928 5471.71 655.568C5631.45 469.248 5833.78 318.433 6078.71 203.081C6323.59 87.7703 6611.12 24.7443 6941.21 14.0443C7093.81 7.03235 7233.07 14.1664 7359 35.4444C7485.01 56.7644 7589.71 79.8264 7673.04 104.671C7756.45 129.436 7808.82 145.365 7830.14 152.498L7739.67 924.368C7665.09 892.518 7563.93 859.688 7436.17 825.958C7308.42 792.238 7143.42 778.908 6941.21 785.918C6721.12 793.048 6533.87 840.998 6379.45 929.718C6225.1 1018.49 6102.62 1132.06 6012.07 1270.51C5921.61 1408.88 5862.15 1559.7 5833.74 1723C5805.4 1886.22 5807.19 2049.48 5839.09 2212.78C5871.06 2376 5934.09 2525.92 6028.12 2662.51C6122.16 2799.14 6245.45 2908.29 6398.09 2990C6550.69 3071.63 6731.74 3112.41 6941.21 3112.41C6976.63 3112.41 7012.1 3109.77 7047.56 3104.46C7083.11 3099.07 7118.61 3094.57 7154.08 3091.01V1946.57H7925.95V3618.07Z" fill="white"/>
<path d="M7925.95 3618.07C7780.44 3699.7 7625.21 3762.69 7460.17 3807.11C7295.13 3851.45 7122.14 3873.58 6941.21 3873.58C6628.83 3873.58 6352.86 3820.36 6113.24 3713.89C5873.7 3607.45 5672.3 3464.62 5509 3285.39C5345.78 3106.2 5222.45 2903.91 5139.03 2678.56C5055.7 2453.21 5012.25 2219.87 5008.68 1978.51C5005.12 1737.19 5041.47 1502.96 5117.79 1275.86C5194.07 1048.68 5312.06 841.928 5471.71 655.568C5631.45 469.248 5833.78 318.433 6078.71 203.081C6323.59 87.7703 6611.12 24.7443 6941.21 14.0443C7093.81 7.03235 7233.07 14.1664 7359 35.4444C7485.01 56.7644 7589.71 79.8264 7673.04 104.671C7756.45 129.436 7808.82 145.365 7830.14 152.498L7739.67 924.368C7665.09 892.518 7563.93 859.688 7436.17 825.958C7308.42 792.238 7143.42 778.908 6941.21 785.918C6721.12 793.048 6533.87 840.998 6379.45 929.718C6225.1 1018.49 6102.62 1132.06 6012.07 1270.51C5921.61 1408.88 5862.15 1559.7 5833.74 1723C5805.4 1886.22 5807.19 2049.48 5839.09 2212.78C5871.06 2376 5934.09 2525.92 6028.12 2662.51C6122.16 2799.14 6245.45 2908.29 6398.09 2990C6550.69 3071.63 6731.74 3112.41 6941.21 3112.41C6976.63 3112.41 7012.1 3109.77 7047.56 3104.46C7083.11 3099.07 7118.61 3094.57 7154.08 3091.01V1946.57H7925.95V3618.07Z" fill="white"/>
<path d="M9346.74 3854.57H8578.21V11.4375H9346.74V3854.57Z" fill="white"/>
<path d="M9346.74 3854.57H8578.21V11.4375H9346.74V3854.57Z" fill="white"/>
<path d="M11458 3854.57H10688.4V775.799H9730.27V11.4375H12416.1V775.799H11458V3854.57Z" fill="white"/>
<path d="M11458 3854.57H10688.4V775.799H9730.27V11.4375H12416.1V775.799H11458V3854.57Z" fill="white"/>
</svg>
